<svg width="32" height="32" viewBox="0 0 32 32" fill="none" xmlns="http://www.w3.org/2000/svg">
<path opacity="0.32" d="M2 6C2 4.89543 2.89543 4 4 4H28C29.1046 4 30 4.89543 30 6V22C30 23.1046 29.1046 24 28 24H9L2 29V6Z" fill="white"/>
<path d="M15.0449 16.5119V16.3187C15.0487 15.6558 15.1074 15.1274 15.2211 14.7335C15.3385 14.3395 15.5089 14.0214 15.7324 13.7789C15.9559 13.5365 16.2248 13.3168 16.5392 13.1199C16.7741 12.9683 16.9843 12.8111 17.1699 12.6483C17.3555 12.4854 17.5033 12.3055 17.6131 12.1085C17.723 11.9077 17.7779 11.6842 17.7779 11.438C17.7779 11.1767 17.7154 10.9475 17.5904 10.7505C17.4654 10.5536 17.2968 10.402 17.0847 10.296C16.8764 10.1899 16.6453 10.1369 16.3915 10.1369C16.1453 10.1369 15.9123 10.1918 15.6926 10.3017C15.473 10.4077 15.293 10.5668 15.1529 10.7789C15.0127 10.9873 14.937 11.2467 14.9256 11.5574H12.6074C12.6264 10.7998 12.8082 10.1748 13.1529 9.68235C13.4976 9.18614 13.954 8.81682 14.5222 8.5744C15.0904 8.32818 15.7173 8.20508 16.4029 8.20508C17.1567 8.20508 17.8233 8.33008 18.4029 8.58008C18.9824 8.82629 19.437 9.18424 19.7665 9.65394C20.0961 10.1236 20.2608 10.6899 20.2608 11.3528C20.2608 11.796 20.187 12.1899 20.0392 12.5346C19.8953 12.8755 19.6926 13.1786 19.4313 13.4437C19.1699 13.7051 18.8612 13.9418 18.5051 14.1539C18.2059 14.332 17.9597 14.5176 17.7665 14.7108C17.5771 14.9039 17.4351 15.1274 17.3404 15.3812C17.2495 15.635 17.2021 15.9475 17.1983 16.3187V16.5119H15.0449ZM16.1699 20.1483C15.7911 20.1483 15.4673 20.0157 15.1983 19.7505C14.9332 19.4816 14.8025 19.1596 14.8063 18.7846C14.8025 18.4134 14.9332 18.0952 15.1983 17.8301C15.4673 17.5649 15.7911 17.4324 16.1699 17.4324C16.5298 17.4324 16.8461 17.5649 17.1188 17.8301C17.3915 18.0952 17.5298 18.4134 17.5336 18.7846C17.5298 19.0346 17.4635 19.2638 17.3347 19.4721C17.2097 19.6767 17.0449 19.8414 16.8404 19.9664C16.6358 20.0877 16.4123 20.1483 16.1699 20.1483Z" fill="white"/>
</svg>
