<svg width="157" height="40" viewBox="0 0 157 40" fill="none" xmlns="http://www.w3.org/2000/svg">
<path d="M26.5829 26.6659C26.5829 30.2024 25.1783 33.5939 22.678 36.0945C20.1777 38.5952 16.7866 40 13.2507 40V26.6637C9.72932 26.6434 6.35912 25.23 3.87632 22.7324C1.39353 20.2348 -5.89062e-05 16.856 1.86749e-09 13.3341H13.2507V0C16.7866 0 20.1777 1.40483 22.678 3.90546C25.1783 6.40608 26.5829 9.79765 26.5829 13.3341H13.3212C16.8447 13.3521 20.2177 14.7647 22.7028 17.2629C25.1879 19.7612 26.5829 23.1419 26.5829 26.6659ZM50.1042 21.2909C46.6197 20.575 43.6418 18.7884 43.6418 15.0347C43.6418 10.6862 48.2871 8.7785 52.2495 8.7785C56.7163 8.7785 60.4982 11.3999 60.7382 15.5414H56.6238C56.2956 13.008 54.0909 12.1754 52.0667 12.1754C50.0425 12.1754 47.9016 12.9199 47.9016 14.8563C47.9016 16.3741 49.1527 17.2089 50.9081 17.5372L53.7384 18.0438C57.2516 18.7047 61.1237 20.0397 61.1237 24.5357C61.1237 28.9746 56.7185 31.1444 52.3684 31.1444C47.0668 31.1444 43.5581 28.2807 43.1661 23.6392H47.2761C47.7519 26.8267 49.9566 27.7498 52.5182 27.7498C54.4235 27.7498 56.8353 27.0338 56.8353 24.7406C56.8353 22.9232 55.1371 22.1787 52.8442 21.7909L50.1042 21.2909ZM66.2469 23.8815C66.4848 26.6219 68.3305 27.9612 70.2974 27.9612C71.5771 27.9612 72.8282 27.5207 73.663 26.1152H77.8919C77.0285 28.4987 74.7048 31.1488 70.3261 31.1488C65.1742 31.1488 62.1655 27.307 62.1655 22.6897C62.1655 17.9249 65.4694 14.3782 70.2071 14.3782C75.1519 14.3782 78.2179 18.2223 78.0703 23.8815H66.2469ZM66.3064 21.0508H73.892C73.8017 18.3412 71.8965 17.3874 70.1697 17.3874C68.6235 17.3874 66.6235 18.3412 66.3019 21.0508H66.3064ZM83.6384 30.7611H79.524V9.17282H83.634L83.6384 30.7611ZM106.572 16.8521C107.495 15.2131 109.215 14.3782 111.217 14.3782C115.06 14.3782 116.756 16.7023 116.756 20.6653V30.7611H112.642V21.5574C112.642 19.5022 112.201 17.6848 109.873 17.6848C107.162 17.6848 106.569 19.8877 106.569 22.421V30.7611H102.457V14.7373H106.567L106.572 16.8521ZM123.131 9.16621V12.9794H119.016V9.16621H123.131ZM123.131 14.7373V30.7611H119.016V14.7373H123.131ZM130.754 31.1488C127.688 31.1488 124.976 29.3623 124.976 26.4434C124.976 22.6589 129.205 21.5288 135.52 20.8129V20.5441C135.52 18.0725 134.179 17.209 132.511 17.209C130.932 17.209 129.624 18.013 129.533 19.7995H125.688C126.014 16.6428 128.575 14.3188 132.716 14.3188C136.498 14.3188 139.626 15.9886 139.626 21.368C139.626 21.8438 139.566 24.0115 139.566 25.4499C139.566 27.9811 139.714 29.4151 140.042 30.7501H136.26C136.136 30.0899 136.047 29.4237 135.991 28.7543C134.831 30.4351 133.163 31.1488 130.749 31.1488H130.754ZM135.639 23.4387C131.014 23.9145 129.205 24.452 129.205 26.2386C129.205 27.3995 130.1 28.3533 131.976 28.3533C134.566 28.3533 135.639 26.9832 135.639 24.6305V23.4387ZM145.974 16.8565C146.896 15.2175 148.617 14.3826 150.619 14.3826C154.46 14.3826 156.158 16.7067 156.158 20.6697V30.7655H152.044V21.5574C152.044 19.5022 151.603 17.6848 149.275 17.6848C146.564 17.6848 145.971 19.8877 145.971 22.421V30.7611H141.859V14.7373H145.969L145.974 16.8565ZM89.1735 23.8815C89.4136 26.6219 91.2593 27.9612 93.224 27.9612C94.5059 27.9612 95.757 27.5207 96.5896 26.1152H100.819C99.9551 28.4987 97.6314 31.1488 93.2549 31.1488C88.103 31.1488 85.1053 27.307 85.1053 22.6897C85.1053 17.9249 88.4092 14.3782 93.1469 14.3782C98.0895 14.3782 101.158 18.2223 101.008 23.8815H89.1735ZM89.233 21.0508H96.8275C96.7393 18.3412 94.8319 17.3874 93.1051 17.3874C91.5567 17.3874 89.5612 18.3412 89.233 21.0508Z" fill="white"/>
</svg>
