<svg width="32" height="32" viewBox="0 0 32 32" fill="none" xmlns="http://www.w3.org/2000/svg">
<rect x="0.5" y="0.5" width="31" height="31" rx="3.5" stroke="white"/>
<path fill-rule="evenodd" clip-rule="evenodd" d="M15 10V8H17V10H15ZM19 16C19 17.6569 17.6569 19 16 19C14.3431 19 13 17.6569 13 16C13 14.3431 14.3431 13 16 13C17.6569 13 19 14.3431 19 16ZM15 22V24H17V22H15ZM22 15H24V17H22V15ZM10 15H8V17H10L10 15ZM20.9498 19.536L22.364 20.9502L20.9498 22.3644L19.5356 20.9502L20.9498 19.536ZM12.4645 11.0507L11.0503 9.63649L9.63609 11.0507L11.0503 12.4649L12.4645 11.0507ZM12.4645 20.95L11.0503 22.3643L9.63608 20.95L11.0503 19.5358L12.4645 20.95ZM20.9498 12.4648L22.364 11.0505L20.9498 9.63634L19.5356 11.0505L20.9498 12.4648Z" fill="white"/>
</svg>
