<svg width="52" height="52" viewBox="0 0 52 52" fill="none" xmlns="http://www.w3.org/2000/svg">
<g clip-path="url(#clip0_587_876)">
<path d="M25.7402 0C22.5309 0 19.9285 11.6405 19.9285 26C19.9285 40.3595 22.5309 52 25.7402 52C28.9496 52 31.552 40.3595 31.552 26C31.552 11.6405 28.9496 0 25.7402 0ZM26.1415 50.5327C25.7745 51.0222 25.4075 50.6549 25.4075 50.6549C23.9295 48.9424 23.1905 45.7609 23.1905 45.7609C20.6052 37.441 21.2205 19.5775 21.2205 19.5775C22.4355 5.39571 24.6456 2.04554 25.3977 1.30177C25.4745 1.22586 25.5757 1.17947 25.6833 1.17077C25.7909 1.16207 25.8982 1.19161 25.9862 1.2542C27.0775 2.02746 27.9927 5.26132 27.9927 5.26132C30.6954 15.2942 30.4507 24.7154 30.4507 24.7154C30.6954 32.913 29.0964 42.0894 29.0964 42.0894C27.8655 49.0632 26.1415 50.5327 26.1415 50.5327Z" fill="white" stroke="white" stroke-width="0.5"/>
<path d="M48.2923 13.0611C46.6944 10.2763 35.3034 13.8122 22.842 20.9578C10.3806 28.1034 1.59049 36.154 3.1872 38.9376C4.78391 41.7212 16.1761 38.1865 28.6375 31.0409C41.0989 23.8953 49.889 15.8447 48.2923 13.0611ZM4.66141 38.5556C4.04965 38.4786 4.18785 37.9757 4.18785 37.9757C4.93828 35.842 7.32751 33.6176 7.32751 33.6176C13.2603 27.2345 29.0623 18.879 29.0623 18.879C41.9668 12.8751 45.9751 13.1284 46.992 13.4083C47.0964 13.4374 47.1871 13.5025 47.248 13.5921C47.309 13.6818 47.3362 13.7901 47.325 13.8978C47.2027 15.2298 44.8472 17.6321 44.8472 17.6321C37.4935 24.9721 29.1993 29.4489 29.1993 29.4489C22.2105 33.7422 13.4551 36.9197 13.4551 36.9197C6.79306 39.3203 4.66165 38.5556 4.66165 38.5556H4.66141Z" fill="white" stroke="white" stroke-width="0.5"/>
<path d="M48.2359 39.0304C49.8462 36.253 41.0782 28.1655 28.6606 20.9662C16.243 13.7668 4.85334 10.1871 3.2445 12.9693C1.63566 15.7515 10.4022 23.8342 22.827 31.0336C35.2517 38.2329 46.6271 41.8129 48.2359 39.0304ZM4.31151 14.0425C4.07365 13.4786 4.57576 13.3427 4.57576 13.3427C6.79874 12.9229 9.92128 13.8796 9.92128 13.8796C18.4162 15.814 33.5639 25.3025 33.5639 25.3025C45.2266 33.4635 47.0152 37.0582 47.2833 38.0786C47.3106 38.1832 47.3 38.2941 47.2534 38.3918C47.2068 38.4894 47.1273 38.5674 47.0288 38.6121C45.8127 39.1689 42.5555 38.3392 42.5555 38.3392C32.5164 35.6475 24.4877 30.7156 24.4877 30.7156C17.2738 26.8248 10.1406 20.838 10.1406 20.838C4.72038 16.2743 4.31317 14.0487 4.31317 14.0487L4.31151 14.0425Z" fill="white" stroke="white" stroke-width="0.5"/>
<path d="M25.6791 28.9975C27.3684 28.9975 28.7379 27.628 28.7379 25.9387C28.7379 24.2494 27.3684 22.8799 25.6791 22.8799C23.9898 22.8799 22.6203 24.2494 22.6203 25.9387C22.6203 27.628 23.9898 28.9975 25.6791 28.9975Z" fill="white"/>
<path d="M38.5 17C39.8807 17 41 15.8807 41 14.5C41 13.1193 39.8807 12 38.5 12C37.1193 12 36 13.1193 36 14.5C36 15.8807 37.1193 17 38.5 17Z" fill="white"/>
<path d="M9.5 24C10.8807 24 12 22.8807 12 21.5C12 20.1193 10.8807 19 9.5 19C8.11929 19 7 20.1193 7 21.5C7 22.8807 8.11929 24 9.5 24Z" fill="white"/>
<path d="M21.5 44C22.8807 44 24 42.8807 24 41.5C24 40.1193 22.8807 39 21.5 39C20.1193 39 19 40.1193 19 41.5C19 42.8807 20.1193 44 21.5 44Z" fill="white"/>
</g>
<defs>
<clipPath id="clip0_587_876">
<rect width="45.4797" height="52" fill="white" transform="translate(3)"/>
</clipPath>
</defs>
</svg>
