<svg width="32" height="32" viewBox="0 0 32 32" fill="none" xmlns="http://www.w3.org/2000/svg">
<rect opacity="0.32" width="32" height="32" rx="16" fill="#111111"/>
<path d="M16 4C13.6266 4 11.3066 4.70379 9.33316 6.02236C7.35977 7.34094 5.8217 9.21508 4.91345 11.4078C4.0052 13.6005 3.76756 16.0133 4.23058 18.3411C4.6936 20.6688 5.83649 22.807 7.51472 24.4853C9.19295 26.1635 11.3311 27.3064 13.6589 27.7694C15.9867 28.2324 18.3995 27.9948 20.5922 27.0865C22.7849 26.1783 24.6591 24.6402 25.9776 22.6668C27.2962 20.6934 28 18.3734 28 16C27.9963 12.8185 26.7309 9.76841 24.4812 7.51877C22.2316 5.26913 19.1815 4.00367 16 4ZM16 27.1452C13.7957 27.1452 11.6409 26.4915 9.80808 25.2669C7.97527 24.0422 6.54676 22.3016 5.70321 20.2651C4.85966 18.2286 4.63895 15.9876 5.06899 13.8257C5.49903 11.6637 6.5605 9.67786 8.11918 8.11918C9.67786 6.5605 11.6637 5.49902 13.8257 5.06898C15.9876 4.63894 18.2286 4.85966 20.2651 5.70321C22.3016 6.54676 24.0422 7.97526 25.2669 9.80807C26.4915 11.6409 27.1452 13.7957 27.1452 16C27.1421 18.9549 25.9669 21.788 23.8774 23.8774C21.788 25.9669 18.9549 27.1421 16 27.1452Z" fill="white"/>
<path d="M17.1356 14.6137C15.1348 13.8998 14.0004 12.8232 14.1021 11.735C14.176 10.9472 14.8229 10.1501 16.0567 10.0878C18.0251 9.99303 19.4945 11.1482 20.3886 12.1463L21.0262 11.5756C20.0074 10.4551 18.3093 9.12664 16.0151 9.23292C13.4575 9.35768 11.466 10.8086 11.1887 12.7655C10.9115 14.7223 12.3439 16.3881 15.017 17.303C17.1933 18.0492 18.404 19.0958 18.337 20.1771C18.2908 20.921 17.4475 21.8983 15.7956 21.8983C13.7278 21.8983 12.2931 20.7801 11.4521 19.8398L10.8145 20.4104C12.1868 21.9376 13.9196 22.7485 15.7956 22.7485C19.0717 22.7485 20.8275 21.0804 21.1094 19.4285C21.3797 17.8806 20.4764 15.8036 17.1356 14.6137ZM20.2707 19.283C20.1881 19.6627 20.027 20.021 19.7978 20.3349C19.5687 20.6488 19.2765 20.9114 18.94 21.1058C19.0839 20.8323 19.1689 20.5317 19.1895 20.2233C19.2426 19.3477 18.8106 17.6819 15.2942 16.4898C13.0439 15.7181 11.8287 14.3688 12.0343 12.881C12.1521 12.0631 12.6743 11.3584 13.4575 10.8594C13.3415 11.1107 13.2711 11.3806 13.2496 11.6565C13.1964 12.3796 13.3974 14.1979 16.8491 15.4177C19.6955 16.4297 20.4787 18.0793 20.2707 19.283Z" fill="white"/>
</svg>
