<svg width="32" height="32" viewBox="0 0 32 32" fill="none" xmlns="http://www.w3.org/2000/svg">
<path opacity="0.32" d="M2 6C2 4.89543 2.89543 4 4 4H28C29.1046 4 30 4.89543 30 6V22C30 23.1046 29.1046 24 28 24H9L2 29V6Z" fill="#111111"/>
<path d="M15.0449 16.5114V16.3182C15.0487 15.6553 15.1074 15.1269 15.2211 14.733C15.3385 14.3391 15.5089 14.0209 15.7324 13.7785C15.9559 13.536 16.2248 13.3163 16.5392 13.1194C16.7741 12.9678 16.9843 12.8107 17.1699 12.6478C17.3555 12.4849 17.5033 12.305 17.6131 12.108C17.723 11.9072 17.7779 11.6838 17.7779 11.4375C17.7779 11.1762 17.7154 10.947 17.5904 10.75C17.4654 10.5531 17.2968 10.4016 17.0847 10.2955C16.8764 10.1894 16.6453 10.1364 16.3915 10.1364C16.1453 10.1364 15.9123 10.1913 15.6926 10.3012C15.473 10.4072 15.293 10.5663 15.1529 10.7785C15.0127 10.9868 14.937 11.2463 14.9256 11.5569H12.6074C12.6264 10.7993 12.8082 10.1743 13.1529 9.68186C13.4976 9.18565 13.954 8.81633 14.5222 8.57391C15.0904 8.3277 15.7173 8.20459 16.4029 8.20459C17.1567 8.20459 17.8233 8.32959 18.4029 8.57959C18.9824 8.8258 19.437 9.18376 19.7665 9.65345C20.0961 10.1232 20.2608 10.6894 20.2608 11.3523C20.2608 11.7955 20.187 12.1894 20.0392 12.5341C19.8953 12.875 19.6926 13.1781 19.4313 13.4432C19.1699 13.7046 18.8612 13.9413 18.5051 14.1535C18.2059 14.3315 17.9597 14.5171 17.7665 14.7103C17.5771 14.9035 17.4351 15.1269 17.3404 15.3807C17.2495 15.6345 17.2021 15.947 17.1983 16.3182V16.5114H15.0449ZM16.1699 20.1478C15.7911 20.1478 15.4673 20.0152 15.1983 19.75C14.9332 19.4811 14.8025 19.1591 14.8063 18.7841C14.8025 18.4129 14.9332 18.0947 15.1983 17.8296C15.4673 17.5644 15.7911 17.4319 16.1699 17.4319C16.5298 17.4319 16.8461 17.5644 17.1188 17.8296C17.3915 18.0947 17.5298 18.4129 17.5336 18.7841C17.5298 19.0341 17.4635 19.2633 17.3347 19.4716C17.2097 19.6762 17.0449 19.841 16.8404 19.966C16.6358 20.0872 16.4123 20.1478 16.1699 20.1478Z" fill="white"/>
</svg>
