<svg width="35" height="53" viewBox="0 0 35 53" fill="none" xmlns="http://www.w3.org/2000/svg">
<path d="M33.6589 10.4501C33.2259 9.7151 32.5174 9.17959 31.6877 8.96049C30.8579 8.7419 29.9749 8.85766 29.2307 9.28192L20.2929 14.4781V4.00529C20.2929 2.85388 19.6734 1.79019 18.668 1.21477C17.6626 0.639347 16.4236 0.639347 15.4183 1.21477C14.4128 1.79019 13.7934 2.85401 13.7934 4.00529V14.4781L4.85553 9.28192C3.86314 8.8099 2.69674 8.86834 1.75713 9.43702C0.817438 10.0051 0.231939 11.0071 0.201325 12.0978C0.170719 13.1891 0.698942 14.2214 1.60576 14.8405L10.6326 20.1172L1.60576 25.3938C0.781121 25.8737 0.211524 26.6885 0.0477751 27.6218C-0.115452 28.5558 0.144124 29.5133 0.756789 30.2405C1.37003 30.9676 2.27458 31.3896 3.23073 31.3958C3.80202 31.3902 4.36198 31.2373 4.85559 30.9524L13.7934 25.7562V38.646H8.91812C7.75683 38.646 6.68402 39.2602 6.10366 40.257C5.5233 41.2539 5.5233 42.4823 6.10366 43.4797C6.68402 44.4766 7.75696 45.0907 8.91812 45.0907H13.7934V49.1187C13.7934 50.2701 14.4129 51.3338 15.4183 51.9092C16.4237 52.4846 17.6627 52.4846 18.6681 51.9092C19.6735 51.3338 20.2929 50.27 20.2929 49.1187V45.0907H25.1682C26.3295 45.0907 27.4023 44.4765 27.9827 43.4797C28.5631 42.4823 28.5631 41.2538 27.9827 40.257C27.4023 39.2602 26.3294 38.646 25.1682 38.646H20.2929V25.7562L29.2308 30.9603C29.9761 31.3846 30.8597 31.4987 31.6893 31.2784C32.5196 31.0581 33.2276 30.5209 33.6588 29.7842C34.0873 29.0469 34.2034 28.1708 33.983 27.3481C33.762 26.5254 33.2224 25.8229 32.4806 25.3937L23.4538 20.117L32.4806 14.8404C33.2225 14.4111 33.762 13.7087 33.983 12.886C34.2034 12.0633 34.0873 11.1878 33.6588 10.4499L33.6589 10.4501Z" fill="white"/>
</svg>
