<svg width="52" height="53" viewBox="0 0 52 53" fill="none" xmlns="http://www.w3.org/2000/svg">
<path d="M26 0.783203C20.8577 0.783203 15.8309 2.2951 11.5552 5.12771C7.27951 7.96032 3.94702 11.9864 1.97914 16.6969C0.011265 21.4073 -0.503621 26.5906 0.499594 31.5912C1.50281 36.5918 3.97907 41.1851 7.61523 44.7903C11.2514 48.3956 15.8842 50.8508 20.9277 51.8454C25.9712 52.8401 31.1989 52.3296 35.9498 50.3785C40.7006 48.4273 44.7613 45.1232 47.6182 40.8839C50.4751 36.6446 52 31.6605 52 26.562C51.9921 19.7274 49.2502 13.1751 44.376 8.34234C39.5018 3.50959 32.8932 0.791085 26 0.783203ZM26 50.5044C21.224 50.5044 16.5553 49.1002 12.5842 46.4694C8.61308 43.8385 5.51799 40.0993 3.69029 35.7243C1.8626 31.3494 1.38439 26.5354 2.31614 21.8911C3.24789 17.2467 5.54775 12.9806 8.92489 9.63215C12.302 6.28374 16.6048 4.00345 21.289 3.07963C25.9732 2.15581 30.8285 2.62994 35.241 4.44209C39.6534 6.25423 43.4248 9.32299 46.0782 13.2603C48.7316 17.1976 50.1479 21.8266 50.1479 26.562C50.1412 32.9099 47.595 38.9959 43.0678 43.4846C38.5406 47.9732 32.4024 50.4978 26 50.5044Z" fill="white"/>
<path d="M28.4624 23.5841C24.1274 22.0505 21.6696 19.7376 21.8898 17.4C22.05 15.7075 23.4516 13.9952 26.1247 13.8612C30.3896 13.6577 33.5733 16.1393 35.5105 18.2834L36.8921 17.0575C34.6846 14.6504 31.0053 11.7965 26.0346 12.0248C20.4932 12.2928 16.1782 15.4097 15.5775 19.6135C14.9768 23.8174 18.0804 27.3958 23.8721 29.3612C28.5875 30.9643 31.2106 33.2127 31.0654 35.5354C30.9653 37.1336 29.1382 39.233 25.5591 39.233C21.0789 39.233 17.9703 36.8308 16.1482 34.8108L14.7666 36.0367C17.74 39.3174 21.4944 41.0595 25.5591 41.0595C32.6572 41.0595 36.4616 37.476 37.0723 33.9274C37.658 30.602 35.7007 26.1401 28.4624 23.5841ZM35.2552 33.6147C35.0761 34.4305 34.7271 35.2002 34.2306 35.8745C33.7341 36.5489 33.101 37.1129 32.3719 37.5306C32.6838 36.9431 32.868 36.2972 32.9125 35.6347C33.0277 33.7537 32.0916 30.1752 24.4728 27.6142C19.5972 25.9565 16.9641 23.058 17.4096 19.8617C17.6649 18.1047 18.7962 16.591 20.4932 15.5189C20.2418 16.0587 20.0893 16.6385 20.0427 17.2312C19.9276 18.7847 20.3631 22.6907 27.8417 25.3113C34.0088 27.4852 35.7058 31.0289 35.2552 33.6147Z" fill="white"/>
</svg>
