<svg width="40" height="40" viewBox="0 0 40 40" fill="none" xmlns="http://www.w3.org/2000/svg">
<path d="M35 9.95936C33.8971 10.4621 32.7102 10.8011 31.4649 10.9529C32.7364 10.1723 33.7114 8.93585 34.1712 7.46086C32.9819 8.18462 31.6652 8.7098 30.2628 8.99331C29.1404 7.76685 27.5406 7 25.7704 7C22.3717 7 19.616 9.82572 19.616 13.3115C19.616 13.8055 19.6702 14.2869 19.7756 14.7497C14.6602 14.4861 10.1245 11.9739 7.08879 8.15527C6.55898 9.08698 6.25571 10.1711 6.25571 11.3288C6.25571 13.5182 7.34212 15.4503 8.99367 16.5819C7.9852 16.5488 7.03581 16.2646 6.20577 15.7919C6.20516 15.8181 6.20516 15.845 6.20516 15.8718C6.20516 18.9292 8.32684 21.4796 11.1427 22.0603C10.6263 22.204 10.0825 22.2814 9.52104 22.2814C9.12399 22.2814 8.73851 22.242 8.36277 22.1677C9.14652 24.675 11.4192 26.5003 14.1121 26.5509C12.0057 28.2438 9.35235 29.253 6.46824 29.253C5.97193 29.253 5.4817 29.223 5 29.1643C7.72456 30.9559 10.9594 32 14.4349 32C25.7563 32 31.9466 22.3832 31.9466 14.0428C31.9466 13.7692 31.9411 13.4964 31.9295 13.2253C33.1317 12.3373 34.1754 11.2252 35 9.95936Z" fill="#F29472"/>
</svg>
