<svg width="40" height="40" viewBox="0 0 40 40" fill="none" xmlns="http://www.w3.org/2000/svg">
<path d="M31.131 10.027C31.1221 10.01 31.1074 9.99671 31.0894 9.98947C29.0147 9.05243 26.8253 8.38424 24.5759 8.00164C24.5555 7.9979 24.5344 8.0006 24.5156 8.00935C24.4968 8.0181 24.4813 8.03246 24.4712 8.05039C24.1731 8.58305 23.9025 9.13017 23.6604 9.68968C21.2357 9.32737 18.7693 9.32737 16.3446 9.68968C16.1009 9.12875 15.8259 8.58149 15.521 8.05039C15.5105 8.03285 15.4949 8.01882 15.4762 8.01013C15.4576 8.00143 15.4367 7.99847 15.4163 8.00164C13.1667 8.38344 10.9771 9.05167 8.9026 9.98952C8.88484 9.99693 8.86985 10.0096 8.85971 10.0257C4.71118 16.1242 3.57474 22.0728 4.13224 27.9476C4.13381 27.962 4.1383 27.976 4.14545 27.9886C4.1526 28.0013 4.16227 28.0124 4.17387 28.0213C6.58952 29.7819 9.29146 31.1259 12.1644 31.9957C12.1846 32.0017 12.2062 32.0014 12.2263 31.9949C12.2464 31.9885 12.2639 31.9761 12.2766 31.9595C12.8937 31.133 13.4404 30.2579 13.9113 29.3429C13.9178 29.3304 13.9215 29.3166 13.9222 29.3026C13.9228 29.2885 13.9205 29.2745 13.9152 29.2614C13.91 29.2483 13.902 29.2364 13.8918 29.2266C13.8815 29.2167 13.8693 29.2091 13.8559 29.2043C12.9937 28.8796 12.159 28.4881 11.3596 28.0336C11.3451 28.0252 11.3329 28.0134 11.3241 27.9993C11.3153 27.9851 11.3102 27.9691 11.3092 27.9525C11.3082 27.936 11.3114 27.9194 11.3184 27.9044C11.3255 27.8893 11.3362 27.8762 11.3496 27.8661C11.5173 27.7424 11.6851 27.6138 11.8453 27.4838C11.8595 27.4723 11.8767 27.4649 11.895 27.4624C11.9133 27.46 11.9319 27.4627 11.9487 27.4701C17.1857 29.8228 22.8554 29.8228 28.0304 27.4701C28.0473 27.4622 28.066 27.4592 28.0846 27.4614C28.1031 27.4636 28.1206 27.4709 28.1351 27.4826C28.2953 27.6125 28.4631 27.7424 28.6321 27.8661C28.6456 27.8761 28.6564 27.8891 28.6635 27.9041C28.6707 27.9191 28.6739 27.9356 28.6731 27.9522C28.6722 27.9687 28.6672 27.9848 28.6585 27.999C28.6498 28.0132 28.6377 28.0251 28.6233 28.0336C27.8257 28.4919 26.9903 28.8832 26.1258 29.2031C26.1124 29.2081 26.1002 29.2159 26.0901 29.2259C26.0799 29.2358 26.072 29.2478 26.0668 29.261C26.0617 29.2742 26.0595 29.2884 26.0602 29.3025C26.061 29.3166 26.0648 29.3304 26.0714 29.3429C26.5502 30.2528 27.0961 31.1268 27.7048 31.958C27.7172 31.9751 27.7347 31.9879 27.7548 31.9946C27.775 32.0014 27.7968 32.0017 27.8171 31.9955C30.6952 31.1287 33.4018 29.7846 35.8205 28.0213C35.8323 28.0128 35.8421 28.002 35.8493 27.9895C35.8565 27.977 35.8608 27.9632 35.8621 27.9489C36.5296 21.1569 34.7448 15.2571 31.131 10.027ZM14.6934 24.3704C13.1167 24.3704 11.8175 22.9461 11.8175 21.1969C11.8175 19.4477 13.0915 18.0233 14.6934 18.0233C16.3078 18.0233 17.5944 19.4601 17.5692 21.1968C17.5692 22.9461 16.2952 24.3704 14.6934 24.3704ZM25.3264 24.3704C23.7497 24.3704 22.4506 22.9461 22.4506 21.1969C22.4506 19.4477 23.7245 18.0233 25.3264 18.0233C26.9409 18.0233 28.2275 19.4601 28.2023 21.1968C28.2023 22.9461 26.9409 24.3704 25.3264 24.3704Z" fill="#4E37DA"/>
</svg>
