<svg width="157" height="40" viewBox="0 0 157 40" fill="none" xmlns="http://www.w3.org/2000/svg">
<g clip-path="url(#clip0_250_520)">
<path d="M26.7269 26.6659C26.7269 30.2024 25.3147 33.5939 22.8009 36.0945C20.287 38.5952 16.8776 40 13.3225 40V26.6637C9.78204 26.6434 6.39358 25.23 3.89733 22.7324C1.40108 20.2348 -5.92254e-05 16.856 1.87761e-09 13.3341H13.3225V0C16.8776 0 20.287 1.40483 22.8009 3.90546C25.3147 6.40608 26.7269 9.79765 26.7269 13.3341H13.3934C16.9359 13.3521 20.3272 14.7647 22.8258 17.2629C25.3244 19.7612 26.727 23.1419 26.7269 26.6659ZM50.3757 21.2909C46.8723 20.575 43.8783 18.7884 43.8783 15.0347C43.8783 10.6862 48.5487 8.7785 52.5326 8.7785C57.0237 8.7785 60.826 11.3999 61.0674 15.5414H56.9307C56.6007 13.008 54.384 12.1754 52.3488 12.1754C50.3137 12.1754 48.1612 12.9199 48.1612 14.8563C48.1612 16.3741 49.419 17.2089 51.184 17.5372L54.0296 18.0438C57.5618 18.7047 61.4549 20.0397 61.4549 24.5357C61.4549 28.9746 57.0259 31.1444 52.6522 31.1444C47.3219 31.1444 43.7942 28.2807 43.4 23.6392H47.5323C48.0106 26.8267 50.2273 27.7498 52.8028 27.7498C54.7184 27.7498 57.1433 27.0338 57.1433 24.7406C57.1433 22.9232 55.4359 22.1787 53.1306 21.7909L50.3757 21.2909ZM66.6059 23.8815C66.845 26.6219 68.7008 27.9612 70.6783 27.9612C71.965 27.9612 73.2228 27.5207 74.0621 26.1152H78.314C77.4459 28.4987 75.1096 31.1488 70.7071 31.1488C65.5274 31.1488 62.5024 27.307 62.5024 22.6897C62.5024 17.9249 65.8241 14.3782 70.5875 14.3782C75.5591 14.3782 78.6417 18.2223 78.4933 23.8815H66.6059ZM66.6656 21.0508H74.2924C74.2016 18.3412 72.2861 17.3874 70.5499 17.3874C68.9953 17.3874 66.9845 18.3412 66.6612 21.0508H66.6656ZM84.0916 30.7611H79.9549V9.17282H84.0872L84.0916 30.7611ZM107.149 16.8521C108.077 15.2131 109.807 14.3782 111.82 14.3782C115.684 14.3782 117.389 16.7023 117.389 20.6653V30.7611H113.252V21.5574C113.252 19.5022 112.809 17.6848 110.469 17.6848C107.743 17.6848 107.147 19.8877 107.147 22.421V30.7611H103.012V14.7373H107.145L107.149 16.8521ZM123.798 9.16621V12.9794H119.661V9.16621H123.798ZM123.798 14.7373V30.7611H119.661V14.7373H123.798ZM131.462 31.1488C128.38 31.1488 125.654 29.3623 125.654 26.4434C125.654 22.6589 129.905 21.5288 136.254 20.8129V20.5441C136.254 18.0725 134.906 17.209 133.229 17.209C131.642 17.209 130.326 18.013 130.235 19.7995H126.369C126.697 16.6428 129.272 14.3188 133.435 14.3188C137.238 14.3188 140.382 15.9886 140.382 21.368C140.382 21.8438 140.323 24.0115 140.323 25.4499C140.323 27.9811 140.471 29.4151 140.801 30.7501H136.999C136.874 30.0899 136.784 29.4237 136.728 28.7543C135.561 30.4351 133.885 31.1488 131.458 31.1488H131.462ZM136.374 23.4387C131.724 23.9145 129.905 24.452 129.905 26.2386C129.905 27.3995 130.805 28.3533 132.691 28.3533C135.296 28.3533 136.374 26.9832 136.374 24.6305V23.4387ZM146.765 16.8565C147.692 15.2175 149.422 14.3826 151.435 14.3826C155.297 14.3826 157.004 16.7067 157.004 20.6697V30.7655H152.868V21.5574C152.868 19.5022 152.425 17.6848 150.084 17.6848C147.358 17.6848 146.762 19.8877 146.762 22.421V30.7611H142.628V14.7373H146.76L146.765 16.8565ZM89.6567 23.8815C89.8981 26.6219 91.7539 27.9612 93.7292 27.9612C95.018 27.9612 96.2759 27.5207 97.113 26.1152H101.365C100.497 28.4987 98.1604 31.1488 93.7602 31.1488C88.5805 31.1488 85.5665 27.307 85.5665 22.6897C85.5665 17.9249 88.8883 14.3782 93.6517 14.3782C98.621 14.3782 101.706 18.2223 101.555 23.8815H89.6567ZM89.7165 21.0508H97.3521C97.2636 18.3412 95.3458 17.3874 93.6096 17.3874C92.0528 17.3874 90.0465 18.3412 89.7165 21.0508Z" fill="#111111"/>
</g>
<defs>
<clipPath id="clip0_250_520">
<rect width="157" height="40" fill="white"/>
</clipPath>
</defs>
</svg>
