<svg width="40" height="40" viewBox="0 0 40 40" fill="none" xmlns="http://www.w3.org/2000/svg">
<path fill-rule="evenodd" clip-rule="evenodd" d="M21.9214 19.5189C21.9214 24.2236 18.1334 28.0375 13.4608 28.0375C8.78832 28.0375 5 24.2236 5 19.5189C5 14.8142 8.78803 11 13.4608 11C18.1336 11 21.9214 14.8142 21.9214 19.5189ZM31.2032 19.5189C31.2032 23.9474 29.3091 27.5388 26.9727 27.5388C24.6363 27.5388 22.7423 23.9474 22.7423 19.5189C22.7423 15.0905 24.6361 11.499 26.9725 11.499C29.3089 11.499 31.2029 15.0893 31.2029 19.5189H31.2032ZM33.512 26.7034C34.3338 26.7034 34.9998 23.4857 34.9998 19.5189C34.9998 15.5509 34.3335 12.3343 33.512 12.3343C32.6905 12.3343 32.0244 15.5512 32.0244 19.5189C32.0244 23.4866 32.6902 26.7034 33.512 26.7034Z" fill="#F29472"/>
</svg>
