<svg width="16" height="16" viewBox="0 0 16 16" fill="none" xmlns="http://www.w3.org/2000/svg">
<path fill-rule="evenodd" clip-rule="evenodd" d="M7 2V0H9V2H7ZM11 8C11 9.65685 9.65685 11 8 11C6.34315 11 5 9.65685 5 8C5 6.34315 6.34315 5 8 5C9.65685 5 11 6.34315 11 8ZM7 14V16H9V14H7ZM14 7H16V9H14V7ZM2 7H0V9H2L2 7ZM12.9498 11.536L14.364 12.9502L12.9498 14.3644L11.5356 12.9502L12.9498 11.536ZM4.46452 3.0507L3.05031 1.63649L1.63609 3.0507L3.05031 4.46491L4.46452 3.0507ZM4.46451 12.95L3.05029 14.3643L1.63608 12.95L3.05029 11.5358L4.46451 12.95ZM12.9498 4.46476L14.364 3.05055L12.9498 1.63634L11.5356 3.05055L12.9498 4.46476Z" fill="white"/>
</svg>
