<svg width="24" height="24" viewBox="0 0 24 24" fill="none" xmlns="http://www.w3.org/2000/svg">
<g opacity="0.24">
<path fill-rule="evenodd" clip-rule="evenodd" d="M19 12C19 15.866 15.866 19 12 19C8.13401 19 5 15.866 5 12C5 8.13401 8.13401 5 12 5C15.866 5 19 8.13401 19 12ZM21 12C21 16.9706 16.9706 21 12 21C7.02944 21 3 16.9706 3 12C3 7.02944 7.02944 3 12 3C16.9706 3 21 7.02944 21 12ZM11.267 13.3238V13.4346H12.6861V13.3238C12.6889 13.0226 12.7244 12.7698 12.7926 12.5653C12.8636 12.3579 12.9716 12.1775 13.1165 12.0241C13.2642 11.8707 13.4531 11.7229 13.6832 11.5809C13.9446 11.4246 14.1704 11.2471 14.3608 11.0482C14.5511 10.8493 14.6974 10.6221 14.7997 10.3664C14.9048 10.1107 14.9574 9.82093 14.9574 9.49707C14.9574 9.01696 14.8409 8.60218 14.6079 8.25275C14.3778 7.90048 14.0554 7.62917 13.6406 7.43883C13.2287 7.24849 12.7514 7.15332 12.2088 7.15332C11.7116 7.15332 11.2571 7.24423 10.8452 7.42605C10.4361 7.60787 10.1065 7.88059 9.85652 8.24423C9.60936 8.60787 9.47868 9.05957 9.46448 9.59934H10.9815C10.9957 9.3323 11.0611 9.11213 11.1775 8.93883C11.2969 8.76269 11.446 8.63201 11.625 8.54679C11.8068 8.45872 11.9986 8.41468 12.2003 8.41468C12.419 8.41468 12.6165 8.46014 12.7926 8.55105C12.9716 8.64196 13.1136 8.7698 13.2187 8.93457C13.3239 9.09934 13.3764 9.29394 13.3764 9.51838C13.3764 9.71724 13.3366 9.89764 13.2571 10.0596C13.1775 10.2187 13.0682 10.3635 12.929 10.4942C12.7926 10.6221 12.6378 10.74 12.4645 10.8479C12.2116 11.0042 11.9971 11.176 11.821 11.3635C11.6449 11.5482 11.5085 11.7925 11.4119 12.0965C11.3182 12.4005 11.2699 12.8096 11.267 13.3238ZM11.348 15.8209C11.5327 16.0028 11.7528 16.0937 12.0085 16.0937C12.179 16.0937 12.3338 16.0525 12.473 15.9701C12.615 15.8849 12.7287 15.7712 12.8139 15.6292C12.902 15.4871 12.946 15.3295 12.946 15.1562C12.946 14.9005 12.8523 14.6817 12.6648 14.4999C12.4801 14.3181 12.2614 14.2272 12.0085 14.2272C11.7528 14.2272 11.5327 14.3181 11.348 14.4999C11.1633 14.6817 11.071 14.9005 11.071 15.1562C11.071 15.4175 11.1633 15.6391 11.348 15.8209Z" fill="white"/>
</g>
</svg>
